Coordinates
version=1
nRows=29
nColumns=22
inDegrees=yes

Units are S.I. units (second, meters, Newtons, ...)
If the header above contains a line with 'inDegrees', this indicates whether rotational values are in degrees (yes) or radians (no).

endheader
time	pelvis_tilt	pelvis_list	pelvis_rotation	pelvis_tx	pelvis_ty	pelvis_tz	hip_flexion_r	hip_adduction_r	hip_rotation_r	knee_angle_r	ankle_angle_r	subtalar_angle_r	hip_flexion_l	hip_adduction_l	hip_rotation_l	knee_angle_l	ankle_angle_l	subtalar_angle_l	lumbar_extension	lumbar_bending	lumbar_rotation
      3.12000000	      0.34900084	      4.66610621	     97.43077661	      0.50631521	      0.93367019	     -0.46432018	      5.09813085	      2.34804205	     -7.21644111	    -15.85813991	      1.34132609	      2.66588477	     10.66369427	     -8.58181059	     -7.78848291	    -49.44704213	      9.35936845	     -1.97529250	     -8.16979499	     -2.69174699	      2.97994173
      3.13000000	      0.41736179	      4.62985426	     97.18117515	      0.50728960	      0.93386061	     -0.46859950	      4.74564570	      2.53223685	     -7.00402878	    -15.60890470	      1.45646496	      2.60651241	     10.60426511	     -8.82788370	     -7.88743644	    -47.61297567	     10.50085307	     -2.33008045	     -8.05615895	     -2.61225063	      3.16144188
      3.14000000	      0.49405794	      4.56378703	     96.93921442	      0.50818566	      0.93397168	     -0.47277981	      4.45155809	      2.71031734	     -6.81681609	    -15.40036580	      1.58559313	      2.55314434	     10.53373489	     -9.08016543	     -7.97357437	    -45.72762659	     11.62498457	     -2.65923375	     -7.90710146	     -2.52624643	      3.29790142
      3.15000000	      0.58624690	      4.46974671	     96.69947050	      0.50902231	      0.93400391	     -0.47685282	      4.21395861	      2.89399321	     -6.64635948	    -15.22920410	      1.73692939	      2.50383098	     10.45783903	     -9.34857207	     -8.05948815	    -43.80881469	     12.72516041	     -2.93504089	     -7.72581111	     -2.42775190	      3.40916631
      3.16000000	      0.66258118	      4.38519234	     96.46417866	      0.50979397	      0.93405712	     -0.48082202	      3.96035269	      3.06217893	     -6.42969840	    -15.03911796	      1.85253459	      2.42531695	     10.32384555	     -9.59292116	     -8.14640861	    -41.84206418	     13.75772383	     -3.30795985	     -7.56280959	     -2.34713896	      3.47087272
      3.17000000	      0.72879899	      4.28680303	     96.24625553	      0.51046953	      0.93407829	     -0.48466786	      3.72779094	      3.21239351	     -6.20990045	    -14.85138325	      1.95451452	      2.32751423	     10.17657201	     -9.81473293	     -8.23289152	    -39.86112819	     14.70066760	     -3.71752434	     -7.39280226	     -2.27681980	      3.47283185
      3.18000000	      0.80989905	      4.17182876	     96.01863960	      0.51108668	      0.93402448	     -0.48838622	      3.54812347	      3.36605160	     -6.03485279	    -14.71527894	      2.08399352	      2.23403156	     10.02813427	    -10.04877922	     -8.35816703	    -37.89876542	     15.57476272	     -4.06417209	     -7.21081007	     -2.19082152	      3.47332177
      3.19000000	      0.86868860	      4.06408851	     95.79569585	      0.51161973	      0.93397717	     -0.49197758	      3.35644348	      3.49299109	     -5.83420653	    -14.56195682	      2.18481575	      2.11288979	      9.84438952	    -10.23590043	     -8.47956188	    -35.94559768	     16.29589346	     -4.44409195	     -7.05181133	     -2.12914252	      3.41504100
      3.20000000	      0.91554541	      3.95571574	     95.57730318	      0.51200652	      0.93390574	     -0.49543447	      3.17452871	      3.59308343	     -5.64955031	    -14.41810787	      2.28886696	      1.98696389	      9.64600418	    -10.37681355	     -8.58572895	    -34.03126139	     16.84200110	     -4.76111051	     -6.90341597	     -2.06703923	      3.32463403
      3.21000000	      0.94690445	      3.84950487	     95.36447005	      0.51226432	      0.93381629	     -0.49875431	      2.99374819	      3.66399421	     -5.47719734	    -14.27097174	      2.39271814	      1.86392937	      9.43172593	    -10.45686163	     -8.63058791	    -32.16731242	     17.15329246	     -4.97385523	     -6.77102517	     -2.01480780	      3.18913913
      3.22000000	      0.96690673	      3.74084809	     95.15304759	      0.51238973	      0.93369160	     -0.50193442	      2.82856608	      3.70642812	     -5.33083656	    -14.13765467	      2.50915121	      1.76954050	      9.21111581	    -10.47410081	     -8.58644346	    -30.37174958	     17.19070062	     -5.02763225	     -6.64712516	     -1.96805487	      3.01656080
      3.23000000	      0.98229894	      3.63333003	     94.94590683	      0.51234749	      0.93353412	     -0.50498266	      2.67016719	      3.72463148	     -5.21620874	    -14.00757645	      2.65164424	      1.71749128	      8.98380473	    -10.42952091	     -8.42145916	    -28.65582235	     16.90101633	     -4.91204557	     -6.53221271	     -1.90912995	      2.81677328
      3.24000000	      0.99866187	      3.56460539	     94.73026086	      0.51218306	      0.93338060	     -0.50789647	      2.48629503	      3.73136356	     -5.10366561	    -13.89587332	      2.84389511	      1.71819403	      8.70070197	    -10.33455230	     -8.10532079	    -27.01524865	     16.27778454	     -4.54202556	     -6.47126721	     -1.83357581	      2.60124765
      3.25000000	      1.01001350	      3.47208107	     94.51786653	      0.51188698	      0.93315178	     -0.51069999	      2.34056025	      3.71381076	     -5.02844748	    -13.79469699	      3.05689358	      1.78217420	      8.43407652	    -10.18104522	     -7.63527797	    -25.45863635	     15.26095694	     -4.00155203	     -6.38359114	     -1.75630062	      2.36761333
      3.26000000	      1.02487061	      3.38243840	     94.29689233	      0.51148619	      0.93287096	     -0.51338251	      2.21083762	      3.68549590	     -4.95574937	    -13.71511908	      3.29292201	      1.88680910	      8.15215485	     -9.99161069	     -7.01717204	    -23.98766859	     13.88960244	     -3.30078057	     -6.30062689	     -1.66013874	      2.12651105
      3.27000000	      1.05286458	      3.29063197	     94.06182973	      0.51104413	      0.93253026	     -0.51596928	      2.10012772	      3.66412408	     -4.86451297	    -13.65184263	      3.53689145	      2.00892890	      7.85632287	     -9.79483040	     -6.29318230	    -22.60100587	     12.23606306	     -2.50312114	     -6.21227891	     -1.54607871	      1.88872253
      3.28000000	      1.09748782	      3.20638519	     93.81207640	      0.51056887	      0.93214453	     -0.51846956	      2.00235614	      3.65554743	     -4.75202361	    -13.61522175	      3.78835819	      2.13567042	      7.53043962	     -9.60972438	     -5.51948426	    -21.29303556	     10.42724970	     -1.64435381	     -6.12910653	     -1.40786413	      1.67435638
      3.29000000	      1.16085407	      3.13437013	     93.54321776	      0.51008827	      0.93172583	     -0.52090920	      1.91206060	      3.66484574	     -4.61633235	    -13.60609841	      4.03028790	      2.25442529	      7.17027658	     -9.45888492	     -4.78171460	    -20.07989556	      8.62571672	     -0.78601168	     -6.05229265	     -1.24878252	      1.48445206
      3.30000000	      1.25129755	      3.08147792	     93.25926565	      0.50959902	      0.93129347	     -0.52332354	      1.81269145	      3.70303698	     -4.45975522	    -13.61049776	      4.25568654	      2.35884213	      6.77352741	     -9.36782028	     -4.17203213	    -18.98096142	      7.00908169	      0.04253396	     -5.98511529	     -1.05794587	      1.32244638
      3.31000000	      1.38408928	      3.06143570	     92.96974414	      0.50909689	      0.93087263	     -0.52574357	      1.67067603	      3.79207567	     -4.26481850	    -13.59578963	      4.46391858	      2.44855305	      6.33919789	     -9.36540112	     -3.77030553	    -18.02830073	      5.72346224	      0.86837701	     -5.94087558	     -0.81884531	      1.17535591
      3.32000000	      1.54609405	      3.06675270	     92.68041774	      0.50856845	      0.93047832	     -0.52816767	      1.49910191	      3.91432872	     -4.05616324	    -13.57407516	      4.64403414	      2.51169329	      5.87663537	     -9.43765493	     -3.61798735	    -17.22193417	      4.83834174	      1.61909211	     -5.91177575	     -0.54665321	      1.04510277
      3.33000000	      1.72592111	      3.10473377	     92.39737477	      0.50801835	      0.93014604	     -0.53059781	      1.28349009	      4.06009140	     -3.84025244	    -13.53521010	      4.80030235	      2.55133169	      5.37009407	     -9.56650059	     -3.70926087	    -16.53695839	      4.33865681	      2.31473518	     -5.91058943	     -0.25676108	      0.92525011
      3.34000000	      1.89663584	      3.17398197	     92.13096426	      0.50742938	      0.92991648	     -0.53303901	      1.02228648	      4.19784503	     -3.62937077	    -13.47880960	      4.93174060	      2.57041447	      4.80702899	     -9.70985257	     -3.99129607	    -15.92416926	      4.13958781	      2.93604651	     -5.93426261	      0.01939779	      0.80585525
      3.35000000	      2.02701300	      3.25111085	     91.87859943	      0.50680424	      0.92979568	     -0.53547272	      0.73492308	      4.29345914	     -3.40751631	    -13.39138721	      5.06143093	      2.57488841	      4.19470098	     -9.81985632	     -4.42306651	    -15.32238304	      4.13436933	      3.43680768	     -5.96281431	      0.24398552	      0.69227415
      3.36000000	      2.10184508	      3.37199014	     91.67243374	      0.50610789	      0.92986360	     -0.53787939	      0.39414453	      4.32875696	     -3.23896368	    -13.29721635	      5.15514591	      2.57111942	      3.47469250	     -9.86283285	     -4.84937538	    -14.64226715	      4.18201519	      3.90542468	     -6.04150848	      0.40256239	      0.54060104
      3.37000000	      2.08497445	      3.45755139	     91.47525448	      0.50540489	      0.93001177	     -0.54025924	      0.08018468	      4.26457697	     -3.05744237	    -13.18540904	      5.27794032	      2.56661215	      2.74135043	     -9.79918464	     -5.34957029	    -13.89278322	      4.24182572	      4.23631263	     -6.07399874	      0.44475972	      0.40354569
      3.38000000	      1.99188969	      3.53723918	     91.32494673	      0.50464460	      0.93028710	     -0.54258574	     -0.23490368	      4.11669051	     -2.92294124	    -13.05711088	      5.37658160	      2.56418687	      1.95785368	     -9.63328390	     -5.76825484	    -13.01662261	      4.22089726	      4.51556647	     -6.09906301	      0.39538523	      0.23318004
      3.39000000	      1.85984620	      3.61172410	     91.22512573	      0.50384823	      0.93065453	     -0.54485104	     -0.56014361	      3.92839482	     -2.82730892	    -12.89242300	      5.42461086	      2.56913997	      1.14633859	     -9.41088484	     -6.09894362	    -12.03881802	      4.15652401	      4.75279819	     -6.11837996	      0.29521011	      0.02777465
      3.40000000	      1.65844683	      3.57831044	     91.15506013	      0.50305017	      0.93094231	     -0.54702298	     -0.75721051	      3.66184613	     -2.76984240	    -12.74339408	      5.52536196	      2.58216938	      0.44708746	     -9.10211397	     -6.39254146	    -11.01246695	      3.93022023	      4.91353322	     -6.01151844	      0.10448956	     -0.18742388
